<svg width="151" height="63" viewBox="0 0 151 63" fill="none" xmlns="http://www.w3.org/2000/svg">
<g clip-path="url(#clip0_2685_5704)">
<g clip-path="url(#clip1_2685_5704)">
<path d="M52.8877 22.9882C52.7711 26.6263 54.6049 28.2373 54.6502 29.2605C54.6286 29.4687 54.5571 29.6688 54.4415 29.844C54.326 30.0192 54.1698 30.1645 53.9861 30.2676L51.9125 31.7068C51.6442 31.8933 51.3279 32.0002 51.0005 32.0151C50.9308 32.0119 49.6738 32.3091 47.6829 27.9016C46.4682 29.405 44.9228 30.6128 43.1648 31.4327C41.4068 32.2526 39.4829 32.6628 37.5404 32.6319C34.9032 32.7749 27.756 31.1478 28.1237 23.6034C27.8662 17.4548 33.6413 13.6352 39.614 13.9581C40.7641 13.9613 43.113 14.0175 47.2261 14.9651V12.4562C47.6618 8.20619 44.8447 4.90862 39.9671 5.40334C39.5783 5.40494 36.8244 5.32303 32.5413 7.02722C31.349 7.57013 31.1968 7.48018 30.7999 7.48018C29.5995 7.48018 30.0936 4.03002 30.3236 3.59313C31.1676 2.56515 36.1327 0.645723 41.0055 0.673028C44.2636 0.387326 47.5042 1.38434 50.0269 3.44857C51.0524 4.58591 51.8347 5.91753 52.3267 7.36301C52.8187 8.80849 53.0101 10.3379 52.8894 11.8587L52.8877 22.9882ZM38.8882 28.1907C44.1417 28.1153 46.3659 24.9831 46.8729 23.2966C47.2714 21.6824 47.205 20.6608 47.205 18.8956C45.6385 18.5229 43.3836 18.1165 40.7965 18.1133C38.3423 17.9302 33.8599 19.0176 34.0349 23.295C33.834 25.9918 35.8363 28.3385 38.8882 28.1907ZM66.5762 31.8931C65.3029 32.0087 64.71 31.1125 64.5221 30.2274L56.4548 3.78106C56.2977 3.33453 56.194 2.87355 56.1438 2.40292C56.114 2.2089 56.1632 2.01109 56.2804 1.85298C56.3977 1.69486 56.5735 1.58936 56.7691 1.55966C56.808 1.55323 56.4241 1.55966 60.3735 1.55966C61.7958 1.41831 62.2591 2.52821 62.4065 3.22531L68.1929 25.8457L73.5646 3.22531C73.6505 2.70811 74.0409 1.44723 75.6381 1.58054H78.418C78.7695 1.55163 80.2177 1.50023 80.472 3.24619L85.8859 26.1557L91.8586 3.24619C91.9363 2.89603 92.2992 1.41992 93.9127 1.58054H97.1072C97.2449 1.55966 98.1034 1.45044 97.9576 2.95867C97.888 3.25583 98.51 1.24645 89.4125 30.2483C89.2262 31.1333 88.6317 32.0296 87.3584 31.914H84.3307C82.5585 32.0987 82.3042 30.3624 82.2766 30.1873L76.9049 8.16121L71.5948 30.1648C71.5689 30.3399 71.3145 32.0762 69.5407 31.8915H66.5762V31.8931ZM110.878 32.7974C109.926 32.799 105.383 32.7492 101.586 30.8233C101.208 30.6645 100.886 30.398 100.661 30.0574C100.435 29.7168 100.317 29.3176 100.321 28.9103V27.1836C100.321 25.8264 101.325 26.0754 101.752 26.2376C103.378 26.8897 104.421 27.3844 106.419 27.7796C112.356 28.989 114.967 27.4101 115.607 27.06C117.737 25.8055 117.906 22.9352 116.457 21.4462C114.76 20.0344 113.95 19.9814 107.851 18.0732C107.099 17.866 100.771 15.8871 100.757 9.66303C100.658 5.12707 104.815 0.639297 112.019 0.67624C114.071 0.674634 119.54 1.33961 121.021 3.18515C121.239 3.52085 121.348 3.91598 121.332 4.31593V5.93982C121.332 6.65298 121.069 7.00956 120.543 7.00956C119.294 6.87142 117.078 5.21541 112.579 5.28287C111.463 5.22505 106.117 5.42904 106.357 9.2936C106.287 12.339 110.668 13.481 111.168 13.6127C117.075 15.3747 119.049 15.6671 121.393 18.3639C124.17 21.9377 122.673 26.1219 122.098 27.2688C119.007 33.2905 111.014 32.8006 110.878 32.7974ZM117.39 49.6402C106.046 57.9475 89.5777 62.3694 75.5166 62.3694C56.544 62.4935 38.2108 55.5763 24.1209 42.9776C23.0631 42.0315 23.9961 40.7353 25.2824 41.4565C40.9123 50.3215 58.6086 54.9794 76.615 54.968C90.0616 54.8965 103.362 52.1918 115.751 47.0092C117.659 46.2061 119.278 48.262 117.39 49.6402ZM122.119 44.2931C120.668 42.4427 112.516 43.4289 108.866 43.861C107.766 43.9847 107.58 43.0386 108.576 42.3399C115.067 37.8152 125.728 39.1114 126.953 40.6325C128.176 42.1536 126.621 52.745 120.544 57.8046C119.611 58.5868 118.719 58.174 119.133 57.146C120.501 53.7328 123.57 46.145 122.119 44.2931Z" fill="#737373"/>
</g>
</g>
<defs>
<clipPath id="clip0_2685_5704">
<rect width="151" height="62" fill="white" transform="translate(0 0.5)"/>
</clipPath>
<clipPath id="clip1_2685_5704">
<rect width="104" height="62" fill="white" transform="translate(23.5 0.5)"/>
</clipPath>
</defs>
</svg>
