<svg width="153" height="35" viewBox="0 0 153 35" fill="none" xmlns="http://www.w3.org/2000/svg">
<rect width="153" height="35" fill="#EDEDED"/>
<g clip-path="url(#clip0_2415_26437)">
<rect width="1440" height="7406" transform="translate(-195 -2648)" fill="white"/>
<rect width="1440" height="335" transform="translate(-195 -150)" fill="white"/>
<g clip-path="url(#clip1_2415_26437)">
<g clip-path="url(#clip2_2415_26437)">
<g clip-path="url(#clip3_2415_26437)">
<path d="M48.2553 32.4239L54.4193 32.5516C52.2949 31.8173 50.2349 30.9234 48.2553 29.8699V32.4239ZM57.5414 31.5779V32.4239L54.4193 32.5516C60.2935 34.5469 65.6688 34.8183 69.66 33.7009C66.4574 33.7328 62.2891 33.2859 57.5414 31.5779ZM123.349 13.1892C125.908 13.1892 128 11.13 128 8.57603C128 6.02203 125.924 4.66523 123.349 4.66523C120.79 4.66523 118.698 6.038 118.698 8.57603C118.698 11.1141 120.774 13.1892 123.349 13.1892ZM118.682 32.4239H128V14.7854H118.682V32.4239ZM106.82 32.4239H116.139V1.24926L106.82 5.60701V32.4239ZM101.831 13.3648C98.9024 10.4596 93.7202 10.6352 93.7202 10.6352C93.7202 10.6352 88.5219 10.4596 85.6089 13.3648C82.6799 16.2699 82.9052 18.776 82.9052 21.761C82.9052 24.746 82.6799 27.2361 85.6089 30.1413C88.538 33.0464 93.7202 32.8709 93.7202 32.8709C93.7202 32.8709 98.9185 33.0464 101.831 30.1413C104.76 27.2361 104.535 24.746 104.535 21.761C104.519 18.7601 104.744 16.254 101.831 13.3648ZM95.4261 24.8418C95.4261 25.4164 95.1364 26.8371 93.7041 26.8371C92.2718 26.8371 91.9821 25.4164 91.9821 24.8418V18.3929C91.9821 17.0042 93.1569 16.653 93.7041 16.653C94.2513 16.653 95.4261 16.9882 95.4261 18.3929V24.8418ZM78.3346 13.3648C75.4055 10.4596 70.2233 10.6352 70.2233 10.6352C70.2233 10.6352 65.0411 10.4596 62.1121 13.3648C61.8063 13.668 61.5166 13.9873 61.2591 14.3225C55.1113 9.59762 49.5911 6.89997 44.8274 4.56945V1.26523L41.2063 2.95724C32.4513 -0.570457 26.8828 0.0520794 25.5471 2.97321C25.5471 2.97321 21.5397 8.20889 35.493 20.6596V32.4239H44.8113V27.8587C43.7652 27.1882 42.7191 26.4699 41.6891 25.6878C39.3072 23.9 37.2794 22.2399 35.5091 20.6756V15.7272C37.6174 18.0737 40.4177 20.7394 44.1032 23.7563L44.8274 24.331V19.5741C44.8274 18.4727 45.101 16.669 46.5655 16.669C48.03 16.669 48.2714 17.7704 48.2714 19.0633V26.8371C51.1683 28.7845 54.2744 30.3648 57.5575 31.5619V16.5732C57.5575 13.5882 55.401 10.6033 51.0235 10.6033C48.4807 10.5873 46.1149 11.9122 44.8274 14.099V5.43142C51.5707 8.76757 58.33 12.854 60.905 14.7375C59.2635 17.068 59.4083 19.223 59.4083 21.7131C59.4083 24.6981 59.183 27.1882 62.1121 30.0934C65.0411 32.9986 70.2233 32.823 70.2233 32.823C70.2233 32.823 75.4216 32.9986 78.3346 30.0934C81.2636 27.1882 81.0222 24.6981 81.0222 21.7131C81.0222 18.7601 81.2636 16.254 78.3346 13.3648ZM35.493 5.60701V15.7112C27.6553 7.01171 29.2325 3.57978 29.828 3.08494C32.0007 1.26522 35.8632 1.80795 40.1924 3.42016L35.493 5.60701ZM71.9453 24.8418C71.9453 25.4164 71.6557 26.8371 70.2233 26.8371C68.791 26.8371 68.5013 25.4164 68.5013 24.8418V18.3929C68.5013 17.0042 69.6761 16.653 70.2233 16.653C70.7705 16.653 71.9453 16.9882 71.9453 18.3929V24.8418Z" fill="#737373"/>
</g>
</g>
</g>
</g>
<defs>
<clipPath id="clip0_2415_26437">
<rect width="1440" height="7406" fill="white" transform="translate(-195 -2648)"/>
</clipPath>
<clipPath id="clip1_2415_26437">
<rect width="1050" height="335" fill="white" transform="translate(0 -150)"/>
</clipPath>
<clipPath id="clip2_2415_26437">
<rect width="153" height="34" fill="white" transform="translate(0 0.5)"/>
</clipPath>
<clipPath id="clip3_2415_26437">
<rect width="103" height="34" fill="white" transform="translate(25 0.5)"/>
</clipPath>
</defs>
</svg>
