<svg width="152" height="75" viewBox="0 0 152 75" fill="none" xmlns="http://www.w3.org/2000/svg">
<rect width="152" height="75" fill="#EDEDED"/>
<g clip-path="url(#clip0_2415_26437)">
<rect width="1440" height="7406" transform="translate(-554 -2628)" fill="white"/>
<rect width="1440" height="335" transform="translate(-554 -130)" fill="white"/>
<g clip-path="url(#clip1_2415_26437)">
<g clip-path="url(#clip2_2415_26437)">
<path d="M127 0.146484C114.122 8.82899 112.752 15.1303 111.636 17.0579C110.568 19.0342 109.772 26.8258 107.923 30.6C106.058 34.4229 99.2847 37.4359 97.3881 38.6994C95.5234 39.9629 92.8778 44.8711 90.7103 49.099C73.4819 48.3862 64.0309 55.3841 49.4003 64.261C54.0859 62.6897 56.3012 61.5558 56.3012 61.5558C71.3144 55.7242 78.5022 50.4921 101.102 53.586C101.277 53.586 101.404 53.6832 101.548 53.7156C102.169 54.072 102.392 54.8333 102.042 55.4651L93.4516 70.9834C93.0531 71.7448 92.2084 72.1497 91.3637 71.9715C71.155 68.1162 55.2016 74.7739 40.5391 74.9845C28.8409 75.1627 25 69.5579 25 69.2988C25 69.1206 25.0956 69.0234 25.2709 69.0234C25.2709 69.0234 31.375 69.0234 41.7025 66.545C53.4325 43.8182 63.8875 35.8646 75.2669 35.8646C75.2669 35.8646 86.6941 35.8646 89.7062 45.8916C93.34 39.4607 94.2166 37.9219 94.2166 37.9219C95.0612 36.3992 99.7947 25.4165 107.987 15.0169C116.194 4.64972 122.394 2.07413 127 0.146484Z" fill="#737373"/>
</g>
</g>
</g>
<defs>
<clipPath id="clip0_2415_26437">
<rect width="1440" height="7406" fill="white" transform="translate(-554 -2628)"/>
</clipPath>
<clipPath id="clip1_2415_26437">
<rect width="1050" height="335" fill="white" transform="translate(-359 -130)"/>
</clipPath>
<clipPath id="clip2_2415_26437">
<rect width="102" height="75" fill="white" transform="translate(25)"/>
</clipPath>
</defs>
</svg>
